:FULLY-SPECIFIED
:FORCE-ALL-JOINTS-BE-3DOF
:DEGREES
2752
root -5.55334 13.9703 -28.3997 161.998 -65.2057 -161.125
lfemur -59.4461 42.9681 -6.26236
ltibia 67.9341 -0 0
lfoot -2.45953 -1.33483 0.004252
ltoes -31.3574 0 0
rfemur -30.8894 -18.5366 21.6956
rtibia 81.878 -0 0
rfoot -35.1124 -24.8146 0.00442479
rtoes -14.4828 0 0
lowerback 15.7328 5.82205 0.544668
upperback -4.01886 8.12679 1.4959
thorax -13.4659 3.80458 -0.842598
lowerneck -2.41405 9.61953 2.06565
upperneck 7.53944 12.581 1.97296
head 2.8184 6.3506 0.685616
lclavicle 1.19519e-14 -1.59028e-15 0
lhumerus 3.50435 10.6895 83.9509
lradius 94.836 -0 0
lwrist -19.0804 0 0
lhand -39.8019 27.6727 5.0531e-05
lfingers 7.12502 -0 0
lthumb -12.7768 57.2624 4.93737e-05
rclavicle 1.19519e-14 -1.59028e-15 0
rhumerus -57.8184 50.9605 -110.152
rradius 114.054 -0 0
rwrist -84.7329 0 0
rhand 4.63382 -26.9657 0.0007181
rfingers 7.12502 -0 0
rthumb 30.0206 -54.5485 0.000938675
2753
root -5.56213 13.9602 -28.4066 162.017 -65.2169 -161.145
lfemur -59.5111 43.022 -6.25285
ltibia 68.0747 -0 0
lfoot -2.50942 -1.40081 0.00517138
ltoes -31.3633 0 0
rfemur -30.8812 -18.5531 21.679
rtibia 81.9832 -0 0
rfoot -35.2161 -24.8476 0.00538156
rtoes -14.4775 0 0
lowerback 15.7101 5.82137 0.533328
upperback -4.02917 8.12372 1.49756
thorax -13.4661 3.80437 -0.832009
lowerneck -2.41535 9.61921 2.06815
upperneck 7.56568 12.5799 1.97278
head 2.82781 6.35008 0.686297
lclavicle 1.19519e-14 -1.59028e-15 0
lhumerus 3.49843 10.7158 83.9505
lradius 94.8253 -0 0
lwrist -19.0866 0 0
lhand -39.7987 27.6849 6.14566e-05
lfingers 7.12502 -0 0
lthumb -12.7737 57.2747 6.00491e-05
rclavicle 1.19519e-14 -1.59028e-15 0
rhumerus -57.8362 50.9373 -110.17
rradius 114.05 -0 0
rwrist -84.7268 0 0
rhand 4.66789 -26.9494 0.000873366
rfingers 7.12502 -0 0
rthumb 30.0531 -54.5262 0.00114163
2754
root -5.57092 13.9501 -28.4135 162.037 -65.2281 -161.165
lfemur -59.5762 43.076 -6.24342
ltibia 68.2153 -0 0
lfoot -2.55931 -1.46679 0.0060333
ltoes -31.3692 0 0
rfemur -30.873 -18.5696 21.6623
rtibia 82.0883 -0 0
rfoot -35.3197 -24.8807 0.00627854
rtoes -14.4721 0 0
lowerback 15.6874 5.82069 0.521987
upperback -4.03948 8.12066 1.49922
thorax -13.4664 3.80416 -0.821421
lowerneck -2.41664 9.6189 2.07064
upperneck 7.59192 12.5787 1.97259
head 2.83723 6.34956 0.686977
lclavicle 1.19519e-14 -1.59028e-15 0
lhumerus 3.49251 10.742 83.95
lradius 94.8145 -0 0
lwrist -19.0928 0 0
lhand -39.7955 27.697 7.16994e-05
lfingers 7.12502 -0 0
lthumb -12.7706 57.287 7.00573e-05
rclavicle 1.19519e-14 -1.59028e-15 0
rhumerus -57.8541 50.914 -110.189
rradius 114.046 -0 0
rwrist -84.7208 0 0
rhand 4.70197 -26.9331 0.00101893
rfingers 7.12502 -0 0
rthumb 30.0856 -54.5038 0.00133191
2755
root -5.57971 13.9399 -28.4205 162.056 -65.2393 -161.185
lfemur -59.6413 43.1299 -6.23406
ltibia 68.3559 -0 0
lfoot -2.6092 -1.53277 0.00683778
ltoes -31.3751 0 0
rfemur -30.8648 -18.5861 21.6456
rtibia 82.1935 -0 0
rfoot -35.4233 -24.9137 0.00711574
rtoes -14.4668 0 0
lowerback 15.6647 5.82 0.510647
upperback -4.04978 8.1176 1.50087
thorax -13.4667 3.80395 -0.810832
lowerneck -2.41794 9.61858 2.07314
upperneck 7.61815 12.5776 1.97241
head 2.84665 6.34904 0.687657
lclavicle 1.19519e-14 -1.59028e-15 0
lhumerus 3.4866 10.7682 83.9496
lradius 94.8038 -0 0
lwrist -19.099 0 0
lhand -39.7923 27.7092 8.12593e-05
lfingers 7.12502 -0 0
lthumb -12.7675 57.2994 7.93983e-05
rclavicle 1.19519e-14 -1.59028e-15 0
rhumerus -57.8719 50.8908 -110.207
rradius 114.042 -0 0
rwrist -84.7147 0 0
rhand 4.73604 -26.9168 0.00115479
rfingers 7.12502 -0 0
rthumb 30.1181 -54.4814 0.0015095
2756
root -5.58849 13.9298 -28.4274 162.076 -65.2505 -161.205
lfemur -59.7064 43.1839 -6.22478
ltibia 68.4965 -0 0
lfoot -2.65909 -1.59875 0.00758479
ltoes -31.381 0 0
rfemur -30.8566 -18.6026 21.6289
rtibia 82.2986 -0 0
rfoot -35.527 -24.9468 0.00789315
rtoes -14.4615 0 0
lowerback 15.642 5.81931 0.499308
upperback -4.06009 8.11453 1.50253
thorax -13.4669 3.80374 -0.800244
lowerneck -2.41924 9.61826 2.07564
upperneck 7.64439 12.5765 1.97223
head 2.85606 6.34852 0.688338
lclavicle 1.19519e-14 -1.59028e-15 0
lhumerus 3.48068 10.7944 83.9491
lradius 94.793 -0 0
lwrist -19.1052 0 0
lhand -39.7891 27.7214 9.01364e-05
lfingers 7.12502 -0 0
lthumb -12.7644 57.3117 8.80721e-05
rclavicle 1.19519e-14 -1.59028e-15 0
rhumerus -57.8897 50.8675 -110.226
rradius 114.038 -0 0
rwrist -84.7087 0 0
rhand 4.77012 -26.9005 0.00128094
rfingers 7.12502 -0 0
rthumb 30.1506 -54.4591 0.0016744
